# xmcd
#
# Track frame offsets: 
#        150
#        12513
#        25485
#        38358
#        51080
#        69060
#        80495
#        94340
#        109233
#        126048
#        144118
#
# Disc length: 2179 seconds
#
# Revision: 0
# Processed by: cddbd v1.5.1PL0 Copyright (c) Steve Scherf et al.
# Submitted via: ExactAudioCopy v0.95a5
#
DISCID=8508810b
DTITLE=Mr. President - Nashville
DYEAR=1900
DGENRE=Country
TTITLE0=Krudt i røven
TTITLE1=Brandeburg, Liller og mig
TTITLE2=Fars dansktoppotpourri
TTITLE3=Miss Asserbo
TTITLE4=Hvor blev alle de gamle venner af?
TTITLE5=En tåre i mit glas
TTITLE6=Langt hjem til Esbjerg og dig
TTITLE7=Min far med det sølv-hvide hår
TTITLE8=Skynd dig hjem
TTITLE9=Noget ved musikken
TTITLE10=Vi er til country
EXTD=
EXTT0=
EXTT1=
EXTT2=
EXTT3=
EXTT4=
EXTT5=
EXTT6=
EXTT7=
EXTT8=
EXTT9=
EXTT10=
PLAYORDER=
